PathFileType	4	(X/Y/Z)	65_2_77_p0_0-161.trc
DataRate	CameraRate	NumFrames	NumMarkers	Units	OrigDataRate	OrigDataStartFrame	OrigNumFrames
49.0	49.0	7	27	m	49.0	0	162
Frame#	Time	RHip			RKnee			RAnkle			RBigToe			RSmallToe			RHeel			LHip			LKnee			LAnkle			LBigToe			LSmallToe			LHeel			Neck			Head			Nose			RShoulder			RElbow			RWrist			RThumb			RIndex			RPinky			LShoulder			LElbow			LWrist			LThumb			LIndex			LPinky			
		X1	Y1	Z1	X2	Y2	Z2	X3	Y3	Z3	X4	Y4	Z4	X5	Y5	Z5	X6	Y6	Z6	X7	Y7	Z7	X8	Y8	Z8	X9	Y9	Z9	X10	Y10	Z10	X11	Y11	Z11	X12	Y12	Z12	X13	Y13	Z13	X14	Y14	Z14	X15	Y15	Z15	X16	Y16	Z16	X17	Y17	Z17	X18	Y18	Z18	X19	Y19	Z19	X20	Y20	Z20	X21	Y21	Z21	X22	Y22	Z22	X23	Y23	Z23	X24	Y24	Z24	X25	Y25	Z25	X26	Y26	Z26	X27	Y27	Z27	
0	0.0	0.38835667384535033	0.7088455621018928	0.3548694720556595	0.37435732837650726	0.8986369464032958	0.7347575294974482	0.29853599159690253	1.0108566170422022	1.1541695329753723	0.29198514127709085	0.8612289239051676	1.2191530404080142	0.3463549139423128	0.8474482390446763	1.2100210895222576	0.27138835861983224	1.1305729473298862	1.2081676000500186	0.17068577267533655	0.7146721781158006	0.33835787727183103	0.13664804182330237	0.8875176544830061	0.7165995105909203	0.10787788363886366	1.0393984963441607	1.1418752589344539	0.12805301682087838	0.8316803527595605	1.1806795616989458	0.06760890542068451	0.9042111098955805	1.1762438728984776	0.11738690408392473	1.0883176043495044	1.1806157072656729	0.34133299606515277	0.5816940336674391	-0.23076559495871354	0.37383644902462343	0.49506906762686775	-0.47336734797532515	0.3500626368163062	0.41763073308061427	-0.3023209424344571	0.4867490791110879	0.5483772867350694	-0.13005644144357406	0.4881131458123762	0.5964526014546468	0.14922038475804278	0.33181558508240305	0.5122661118908982	0.3344309451654967	0.2542777871878732	0.5013779810407577	0.39924930861041075	0.2487355746847251	0.548857692792704	0.42120121976857605	0.26485467667196516	0.5726943530598229	0.4122624649689738	0.18164503671841578	0.548328080499654	-0.16721502545015826	0.131346080372434	0.597804280305532	0.0886801117403008	0.19239566428395524	0.5446638715557616	0.32774454287652943	0.2648340643082691	0.5239560763099249	0.37469789936792375	0.26178563440881	0.5338101681688168	0.41875394433681845	0.24177191830202013	0.532049384398682	0.4272938279931529
1	0.02040816326530612	0.3885422020407739	0.7087814531584787	0.35468890404486825	0.37427296846650865	0.8989081884639105	0.7347543077154843	0.29854248080271617	1.0107573814148478	1.1541151652264536	0.2954414133591396	0.8769867241834687	1.224372752498468	0.35370058904839785	0.8902676611815746	1.226044912822123	0.2734296346261825	1.0920692126517302	1.1957131597734008	0.17344853405374328	0.7260710674646567	0.3352041284244566	0.13648430686358762	0.8871270896149925	0.7208002347305388	0.10785713020223682	1.0395894894328384	1.1419586796520098	0.12834319305597455	0.8322818730479923	1.1808410604631698	0.07462059897059269	0.8929210633743803	1.1731989024040084	0.12280984481139288	1.0908634580858076	1.1822979485074099	0.34186798812439667	0.5806607284511247	-0.23412876817697842	0.37728872381691797	0.48147677130230626	-0.46969704863186806	0.34675157384465494	0.4062055116191215	-0.3003393219372232	0.4867763111496709	0.5484456163769622	-0.13006891875388163	0.48807710433244045	0.5964268532455864	0.1493794865481331	0.33202539482264304	0.5120550569092921	0.334526655167053	0.2503394897248177	0.5142785177876715	0.3997461202195168	0.249072785901444	0.5499239377429217	0.42145277206740356	0.26505593665499194	0.5723188615272471	0.4122920056614785	0.18423373707190493	0.5610651922299278	-0.16887097440384366	0.13047728770314965	0.5989853620019281	0.09197520253914472	0.1924721263988151	0.5446586079797964	0.3278157195495596	0.26497603140650233	0.5239457383179482	0.3747508993970425	0.26186641983404463	0.5338861804728471	0.41887685477561576	0.24015911503143975	0.5400402965448936	0.4279824700402865
2	0.04081632653061224	0.38847643859208036	0.7089197604878025	0.35466746088679674	0.36857006455420527	0.8988342329606452	0.7385492719927341	0.2984436022393143	1.0107575715121078	1.154215632304104	0.2955248001389832	0.8776994857363479	1.2245644161489342	0.35520339319717564	0.8970581347191374	1.227898076414974	0.27087090020560634	1.0779629296361442	1.192065420849547	0.17344175312981117	0.7262252179398145	0.3351375813096465	0.13645483602434272	0.8871564135218031	0.7208065743347976	0.10787087034081409	1.039513803067303	1.1419842245845049	0.1285502097589263	0.8331796076277463	1.1807772943197397	0.0750844618469277	0.8944497577076628	1.1732022061324228	0.12323276520789597	1.0924411887488255	1.182192844412854	0.34127924651880687	0.5818373796174505	-0.2307683879214757	0.37747156386234004	0.4796636643362884	-0.47277668323773625	0.34672982764400345	0.40631159442412607	-0.30025855708934196	0.48679796726497504	0.5484182480385064	-0.13011545081239062	0.4880630825360888	0.5966094372090904	0.1493716526293545	0.33203016510136485	0.5123304510637878	0.33445764539392264	0.25354642952507916	0.5278074107155475	0.40062824751984016	0.25188315435344544	0.5606695691097711	0.4184106983739421	0.26158137637134016	0.5573265326671766	0.4072285861752487	0.18429613593907465	0.561295058918408	-0.16890097267711832	0.13044872750423467	0.5991594613967208	0.09203031647471126	0.19226735873820164	0.5423400811974693	0.32763715124041165	0.2649080952662769	0.5237049216327881	0.3747451279819529	0.26185976073591744	0.5336982545433898	0.418773806434988	0.2401425734171992	0.5402282304790634	0.42798863794670466
3	0.061224489795918366	0.38845073589959894	0.7088979762542198	0.3546724595853243	0.3696609808813934	0.8969731357427602	0.733973084978549	0.29850986769003224	1.0108574704869688	1.1541098080379446	0.29560171899389376	0.878130297681173	1.2245962128942953	0.3553515301636638	0.8990016390326697	1.2257260227392808	0.27100908693587916	1.0788718302228375	1.1923408691476918	0.1733134550794814	0.7236081822258208	0.3313705224262997	0.13632759696087102	0.8842803693494862	0.7119927834067035	0.10790702330132221	1.0395988198152122	1.1418077992401074	0.13099464132577365	0.847430582010516	1.1848549620894842	0.07550668626702747	0.89635333917977	1.1732706121482073	0.1238301933463188	1.0949336899708642	1.1821984042604594	0.3413032981236838	0.581855760125834	-0.23078785268282867	0.37395218751411213	0.4696156483602597	-0.4669697622325315	0.34675839358613814	0.40631469854376456	-0.30026820820257133	0.48681728740931857	0.5484627804243799	-0.13012787785858917	0.4871865311518788	0.5956122394191704	0.14901144858259802	0.3321373562509595	0.5126030207340642	0.33445984650446187	0.2544885212475644	0.5265919810709524	0.39724169565518236	0.2519421836182885	0.5606078152977266	0.4184324376216308	0.26484694078953025	0.5700242509601422	0.4080677170758102	0.18433135446610316	0.5612751639511403	-0.1688663133396126	0.13047880642238208	0.5989947316038021	0.0920731593771283	0.19240451596737496	0.5444525870500604	0.3313930979428198	0.2647344271446978	0.5236606801948509	0.3780231444642152	0.2617876840712378	0.5338222223602967	0.4187862418446261	0.24010418120000765	0.5404043016851277	0.42807258422758615
4	0.08163265306122448	0.3885211437007368	0.7087778481254355	0.3546993037956921	0.3685449953877594	0.898578298604381	0.7384386256200974	0.2985118263806745	1.0107763351706907	1.154090896783522	0.295526985141358	0.8778153312279198	1.2245445369097636	0.35488122826715546	0.8958386945732053	1.2246761890006184	0.27094887014123364	1.078245686859568	1.192065605405914	0.17342659605378952	0.7260615526220972	0.33518877274594827	0.13620415825731738	0.8839010780355019	0.7162220024398653	0.10793195308528424	1.0406677697067717	1.138362508137262	0.1309435529785107	0.847215070993388	1.1852379669578237	0.0756568600870375	0.8948738169641264	1.173136623711182	0.1236729702857052	1.094296669869501	1.182155799848025	0.34129797709847287	0.5819153195635104	-0.23077561102275218	0.3739725390911954	0.4693568736114541	-0.46692124213287006	0.34678966312802	0.4061434069061974	-0.3002094204116784	0.4868275652128868	0.5484682870465786	-0.1301584508293549	0.4881510921136377	0.5965146407411358	0.14943291607508136	0.33194117903264153	0.5122424958834484	0.33446397831038205	0.2543779223179239	0.5261731420212691	0.3971586484070916	0.2518257758823064	0.5603310032216878	0.4182937437500053	0.2615284145040195	0.5573448638473957	0.4070670805370727	0.18437870370576853	0.5614832349385951	-0.16890802607553437	0.13054482420786773	0.5989281393155341	0.09213798870151298	0.19238084338420275	0.5445472828201791	0.33139790220015436	0.26478110780561415	0.523693840774159	0.37801412491699504	0.26180199098611184	0.5337114670404897	0.41874937322297895	0.23990421556244035	0.5398027534106353	0.42794348061770343
5	0.10204081632653061	0.3883301714013084	0.7086929756648792	0.3547953928370775	0.3685671013811707	0.898652927216098	0.7386027317952565	0.2979459382093272	1.0077760837759209	1.1492655334070006	0.2976608238096765	0.8892702018838561	1.2281982655231627	0.35642958639426725	0.9041401689447237	1.2274195083197033	0.2710120365756695	1.079613816525659	1.192529053460544	0.1732665712363649	0.7235984577489821	0.3314241146885991	0.13624789752699734	0.8840018514754611	0.7164049639219267	0.10782530545790729	1.0395280819653727	1.1419796948528356	0.1310703802537148	0.8478819854178766	1.1846095520212898	0.07578548059390462	0.8986199013983025	1.1733815392613511	0.12375210324894217	1.0970252530378637	1.1819192972568047	0.3374506057269018	0.595323393670371	-0.23327102769292551	0.3739491920801081	0.4696277075134071	-0.46691269083617754	0.3467319338007729	0.40617801648382135	-0.3001785630012833	0.486798000207729	0.5485065170961576	-0.1300979109810296	0.4879083061028741	0.5944988080656126	0.1452869025488082	0.32767070386711084	0.5122664340972087	0.3342664792842327	0.2533083208953469	0.5275514315788248	0.4004748493662167	0.2506550846652082	0.5617838211720848	0.42169494843566496	0.2648492114399071	0.5701606595419467	0.4080083348428493	0.18431369738542744	0.5611336647997308	-0.16877160748808465	0.13056689434516694	0.6011785657625457	0.0959813173841157	0.19228574951242655	0.5425538126793453	0.32767892351170735	0.261218634682544	0.5116995304674682	0.37721630986467686	0.26162178860456925	0.5338858273212309	0.4188317139101205	0.24297104750491502	0.5508970158065966	0.4255299725826802
6	0.12244897959183673	0.38835955559573865	0.7087411212215887	0.3548870372689096	0.3685779772566846	0.8985831992675174	0.7385499821572905	0.29852193342119426	1.0108018497041833	1.1541033368814768	0.2954783621275331	0.8775142714471403	1.2243249133755598	0.3592737196319836	0.875655976942029	1.2149118462104203	0.2735638672918614	1.0936262032177386	1.1963524668763734	0.17044815526406576	0.7122929877042117	0.33466907574752874	0.13622077765374468	0.8838209135766936	0.716338654157084	0.10790766470461256	1.0397054611717265	1.1415755516231656	0.1286022891392403	0.8333846575718207	1.1805446412476184	0.07486517938377461	0.8948009312167752	1.1731723467345307	0.12318639661850475	1.094846630436977	1.18190785965822	0.3374487523309102	0.5953940991004636	-0.23326426173531725	0.3741515783664399	0.46802382284812283	-0.4699628294107098	0.3467080200837809	0.4061712373342464	-0.30017135551259555	0.4867779286098013	0.5484790529373923	-0.13005419086177267	0.4881248920999968	0.5964290224227049	0.14924500446199299	0.33201050935772974	0.5122635429626987	0.33463231258986104	0.25332779434412067	0.5270351669654074	0.4005155430585948	0.24851713162678962	0.547168424600784	0.41728691084415226	0.26474096957416704	0.5698712287001484	0.4115072453297767	0.18433103721275684	0.5612166084613983	-0.16874027490602067	0.1305677294048433	0.6010945172942463	0.09602584377611145	0.19241004138594278	0.5445658937109433	0.33146220351939276	0.2646601180178641	0.5236378692040208	0.37799679663087854	0.2617080841207043	0.5339034797391253	0.4187847636238972	0.24315209526671702	0.553042399100277	0.4291298273585098
